<svg width="68" height="68" fill="none" xmlns="http://www.w3.org/2000/svg"><g filter="url(#filter0_d)"><path d="M0 60l4.138-15C1.448 40.345 0 35.172 0 29.793 0 13.448 13.448 0 29.896 0 46.346 0 60 13.448 60 29.793S46.345 60 29.896 60c-5.172 0-10.137-1.655-14.586-4.138L0 60z" fill="#fff"/><path d="M16.138 50.483l.931.517c3.828 2.38 8.276 3.828 12.931 3.828 13.552 0 24.828-11.276 24.828-25.035S43.552 5.173 29.897 5.173c-13.656 0-24.725 10.965-24.725 24.62 0 4.759 1.345 9.414 3.828 13.345l.62.93-2.378 8.69 8.896-2.275z" fill="#55CD6C"/><path d="M21.931 15.931l-1.966-.103c-.62 0-1.24.207-1.655.62-.93.828-2.482 2.38-2.896 4.449-.724 3.103.414 6.827 3.103 10.551 2.69 3.724 7.862 9.724 16.966 12.31 2.896.828 5.172.311 7.034-.827a6.104 6.104 0 002.69-3.93l.31-1.45c.104-.413-.103-.93-.517-1.137l-6.517-3a.987.987 0 00-1.242.31l-2.586 3.31a.805.805 0 01-.827.207c-1.759-.62-7.656-3.103-10.863-9.31-.103-.31-.103-.62.104-.828l2.483-2.793c.207-.31.31-.724.207-1.034l-3-6.724c-.104-.31-.414-.62-.828-.62z" fill="#fff"/></g><defs><filter id="filter0_d" x="0" y="0" width="68" height="68" filterUnits="userSpaceOnUse" color-interpolation-filters="sRGB"><feFlood flood-opacity="0" result="BackgroundImageFix"/><feColorMatrix in="SourceAlpha" values="0 0 0 0 0 0 0 0 0 0 0 0 0 0 0 0 0 0 127 0"/><feOffset dx="4" dy="4"/><feGaussianBlur stdDeviation="2"/><feColorMatrix values="0 0 0 0 0 0 0 0 0 0 0 0 0 0 0 0 0 0 0.25 0"/><feBlend in2="BackgroundImageFix" result="effect1_dropShadow"/><feBlend in="SourceGraphic" in2="effect1_dropShadow" result="shape"/></filter></defs></svg>