<svg width="112" height="112" fill="none" xmlns="http://www.w3.org/2000/svg"><g clip-path="url(#clip0)"><path d="M86.422 0h-6.76v112h6.76a6.76 6.76 0 006.761-6.761V6.761A6.76 6.76 0 0086.423 0z" fill="#4EC17A"/><path d="M79.662 0H25.577a6.76 6.76 0 00-6.76 6.76v98.479a6.76 6.76 0 006.76 6.761h54.085a6.76 6.76 0 006.76-6.761v-13.52l-20.281-42.48L86.422 6.761A6.76 6.76 0 0079.662 0z" fill="#69EF9C"/><path d="M62.76 98.479H56v6.76h6.76a3.38 3.38 0 100-6.76z" fill="#2E689A"/><path d="M59.38 101.859a3.38 3.38 0 00-3.38-3.38h-6.76a3.38 3.38 0 000 6.76H56a3.38 3.38 0 003.38-3.38z" fill="#69A7FF"/><path d="M56 49.24l23.662 42.478h6.76v-25.24l-6.76-14.084 6.76-14.084V6.76h-6.76L56 49.24z" fill="#E6F0FF"/><path d="M65.56 6.76l-4.78 4.781a6.758 6.758 0 01-9.556 0c-.004 0-4.785-4.78-4.785-4.78H25.578V38.31l6.76 14.31-6.76 13.859v25.24h54.084V6.76H65.561z" fill="#fff"/><path d="M79.662 38.31l-10.14 14.084 10.14 14.085h6.76v-28.17h-6.76z" fill="#306297"/><path d="M25.578 38.31h54.084v28.169H25.577v-28.17z" fill="#2B78B9"/><path d="M56 8.113a1.352 1.352 0 100-2.704 1.352 1.352 0 000 2.704z" fill="#404242"/><path d="M73.722 74.262l-.82.823-.82-.823a3.472 3.472 0 00-4.922 0 3.498 3.498 0 000 4.936l5.741 5.76 5.742-5.76a3.498 3.498 0 000-4.936 3.472 3.472 0 00-4.921 0z" fill="#FF5A47"/><path d="M56 31.55a5.634 5.634 0 100-11.268 5.634 5.634 0 000 11.267z" fill="#4B88D5"/><path d="M37.972 31.55a5.634 5.634 0 100-11.268 5.634 5.634 0 000 11.267z" fill="#69A7FF"/><path d="M74.028 31.55a5.634 5.634 0 100-11.268 5.634 5.634 0 000 11.267z" fill="#2D6AAB"/><path d="M59.38 74.93H32.338a1.69 1.69 0 110-3.38H59.38a1.69 1.69 0 110 3.38zm-13.52 6.76H32.337a1.69 1.69 0 110-3.38h13.521a1.69 1.69 0 110 3.38z" fill="#ADACA7"/></g><defs><clipPath id="clip0"><path fill="#fff" d="M0 0h112v112H0z"/></clipPath></defs></svg>