<svg width="112" height="112" fill="none" xmlns="http://www.w3.org/2000/svg"><g clip-path="url(#clip0)"><path d="M108.41 47.34a12.168 12.168 0 00-8.66-3.59h-3.566a41.715 41.715 0 00-3.108-7.5l2.522-2.525c4.775-4.773 4.775-12.546 0-17.323a12.16 12.16 0 00-8.662-3.588 12.16 12.16 0 00-8.66 3.588l-2.525 2.522a41.556 41.556 0 00-7.501-3.108V12.25c0-5.434-3.618-10.207-8.75-11.74-.348-.105-.7-.193-1.06-.267A12.397 12.397 0 0056 0c-3.27 0-6.346 1.275-8.66 3.59a12.169 12.169 0 00-3.59 8.66v3.566a41.556 41.556 0 00-7.5 3.108l-2.525-2.522c-4.773-4.775-12.546-4.775-17.323 0a12.164 12.164 0 00-3.588 8.662 12.16 12.16 0 003.588 8.66l2.522 2.525a41.715 41.715 0 00-3.108 7.501H12.25C5.495 43.75 0 49.245 0 56c0 3.27 1.275 6.346 3.59 8.66a12.169 12.169 0 008.66 3.59h3.566a41.715 41.715 0 003.108 7.5l-2.522 2.525c-4.775 4.773-4.775 12.546 0 17.323a12.16 12.16 0 008.662 3.588 12.16 12.16 0 008.66-3.588l2.525-2.522a41.556 41.556 0 007.501 3.108v3.566c0 6.755 5.495 12.25 12.25 12.25.814 0 1.634-.081 2.44-.243.001-.002.003-.002.006-.002.356-.072.708-.16 1.054-.267a12.129 12.129 0 005.16-3.078 12.168 12.168 0 003.59-8.66v-3.566a41.556 41.556 0 007.5-3.108l2.525 2.522a12.204 12.204 0 008.66 3.583 12.221 12.221 0 008.663-3.583 12.164 12.164 0 003.588-8.662 12.16 12.16 0 00-3.588-8.66l-2.522-2.525a41.715 41.715 0 003.108-7.501h3.566c6.755 0 12.25-5.495 12.25-12.25 0-3.27-1.275-6.346-3.59-8.66zM59.5 76.707c-.575.098-1.16.17-1.75.219-.578.05-1.162.074-1.75.074-11.598 0-21-9.402-21-21s9.402-21 21-21c.588 0 1.172.024 1.75.074.59.049 1.175.12 1.75.22C69.433 36.955 77 45.593 77 56c0 10.406-7.567 19.044-17.5 20.707z" fill="#69EF9C"/><path d="M56 80.5c-13.51 0-24.5-10.99-24.5-24.5S42.49 31.5 56 31.5c.696 0 1.387.03 2.054.087a24.398 24.398 0 0115.933 7.777A24.424 24.424 0 0180.5 56a24.424 24.424 0 01-6.513 16.636 24.41 24.41 0 01-15.95 7.778A23.94 23.94 0 0156 80.5zm0-42c-9.65 0-17.5 7.85-17.5 17.5S46.35 73.5 56 73.5c.494 0 .98-.02 1.446-.061 9.01-.74 16.054-8.4 16.054-17.439s-7.044-16.698-16.037-17.437A16.87 16.87 0 0056 38.5z" fill="#2E689A"/><path d="M108.41 47.34a12.168 12.168 0 00-8.66-3.59h-3.566a41.715 41.715 0 00-3.108-7.5l2.522-2.525c4.775-4.773 4.775-12.546 0-17.323a12.16 12.16 0 00-8.662-3.588 12.3 12.3 0 00-3.5.506 12.147 12.147 0 015.162 3.082c4.775 4.777 4.775 12.55 0 17.323l-.963.963a3.066 3.066 0 00-.6 3.473 41.752 41.752 0 011.474 3.559 3.065 3.065 0 002.882 2.03h1.359c3.27 0 6.346 1.275 8.66 3.59a12.168 12.168 0 013.589 8.81c-.08 6.736-5.69 12.1-12.427 12.1h-1.181a3.065 3.065 0 00-2.882 2.03 41.752 41.752 0 01-1.475 3.559 3.065 3.065 0 00.601 3.472l.963.964a12.16 12.16 0 013.588 8.66c0 3.273-1.274 6.35-3.588 8.663a12.171 12.171 0 01-5.167 3.076c1.142.339 2.323.507 3.505.507a12.221 12.221 0 008.662-3.583 12.164 12.164 0 003.588-8.662 12.16 12.16 0 00-3.588-8.66l-2.522-2.525a41.715 41.715 0 003.108-7.501h3.388c6.737 0 12.347-5.364 12.427-12.1a12.168 12.168 0 00-3.589-8.81zM68.25 15.816V12.25c0-5.434-3.618-10.207-8.75-11.74-.348-.105-.7-.193-1.06-.267a12.397 12.397 0 00-5.947.264C57.63 2.04 61.25 6.815 61.25 12.25v1.359c0 1.293.814 2.442 2.03 2.881 1.208.436 2.395.928 3.559 1.475 1.17.55 2.558.314 3.473-.6l.629-.628a40.204 40.204 0 00-2.691-.921zm-1.411 78.219a41.569 41.569 0 01-3.559 1.475 3.066 3.066 0 00-2.03 2.882v1.358c0 3.27-1.275 6.346-3.59 8.66a12.129 12.129 0 01-5.16 3.078A12.09 12.09 0 0056 112c.814 0 1.634-.081 2.44-.243.001-.002.003-.002.006-.002.356-.072.708-.16 1.054-.267a12.129 12.129 0 005.16-3.078 12.168 12.168 0 003.59-8.66v-3.566a40.147 40.147 0 002.69-.92l-.628-.629a3.065 3.065 0 00-3.473-.6z" fill="#67C58B"/></g><defs><clipPath id="clip0"><path fill="#fff" d="M0 0h112v112H0z"/></clipPath></defs></svg>