<svg width="112" height="112" fill="none" xmlns="http://www.w3.org/2000/svg"><g filter="url(#filter0_i)"><path d="M112 46.556H0v57.75a7.656 7.656 0 007.656 7.656h96.688a7.656 7.656 0 007.656-7.656v-57.75z" fill="#51CA7F"/><path d="M56 46.556v65.406h48.344a7.656 7.656 0 007.656-7.656v-57.75H56z" fill="#69EF9C"/><path d="M93.188 90.196H77.495V79.26h15.692a3.281 3.281 0 000-6.563H18.811a3.281 3.281 0 000 6.563h15.692v10.937h-15.69a3.281 3.281 0 000 6.563h74.374a3.281 3.281 0 000-6.563zM41.066 79.26h29.866v10.937H41.067V79.26z" fill="#fff"/><path d="M109.812 36.039H12.77v20.36h97.042A2.187 2.187 0 00112 54.212V38.226a2.187 2.187 0 00-2.188-2.187z" fill="#51CA7F"/><path d="M109.812 36.039H56v20.36h53.812A2.187 2.187 0 00112 54.212V38.226a2.187 2.187 0 00-2.188-2.187z" fill="#69EF9C"/><path d="M104.653.072l-89.778 15.83 6.859 19.466 86.455-15.245a2.188 2.188 0 001.775-2.534l-2.776-15.743a2.188 2.188 0 00-2.535-1.774z" fill="#51CA7F"/><path d="M109.963 17.589l-2.775-15.743a2.188 2.188 0 00-2.535-1.774L56 8.65v20.675l52.189-9.203a2.187 2.187 0 001.774-2.534z" fill="#4EC17A"/><path d="M74.888 5.32L58.755 28.358c-.12.171-.219.35-.302.535l9.057-1.597L84.027 3.709l-9.14 1.611zM104.653.072l-.875.154-16.132 23.038c-.12.171-.219.35-.302.535l9.057-1.598 11.484-16.4-.697-3.955a2.188 2.188 0 00-2.535-1.774zM88.565 36.039l20.361 20.36h.886A2.187 2.187 0 00112 54.212v-4.02L97.846 36.04h-9.28zm-29.335 0l20.36 20.36h9.28L68.51 36.04h-9.28z" fill="#E4DFD9"/><path d="M45.997 10.415l-16.13 23.037a3.24 3.24 0 00-.303.535l9.057-1.597L55.137 8.803l-9.14 1.611zM30.25 36.039c.16.389.398.754.714 1.07l19.29 19.29h9.28l-20.36-20.36H30.25z" fill="#fff"/><path d="M17.489 13.743H4.375A4.375 4.375 0 000 18.118v33.906A4.375 4.375 0 004.375 56.4h13.023a4.375 4.375 0 003.595-1.88l12.215-17.6a4.375 4.375 0 00-.084-5.106L21 15.508a4.376 4.376 0 00-3.511-1.765z" fill="#318BC0"/><path d="M18.156 38.352a3.281 3.281 0 100-6.562 3.281 3.281 0 000 6.562z" fill="#fff"/><path d="M93.188 90.196H77.495V79.26h15.692a3.281 3.281 0 000-6.563H56v6.563h14.933v10.937H56v6.563h37.188a3.281 3.281 0 000-6.563z" fill="#E4DFD9"/></g><defs><filter id="filter0_i" x="0" y="0" width="112" height="112" filterUnits="userSpaceOnUse" color-interpolation-filters="sRGB"><feFlood flood-opacity="0" result="BackgroundImageFix"/><feBlend in="SourceGraphic" in2="BackgroundImageFix" result="shape"/><feColorMatrix in="SourceAlpha" values="0 0 0 0 0 0 0 0 0 0 0 0 0 0 0 0 0 0 127 0" result="hardAlpha"/><feOffset dx="-6" dy="5"/><feComposite in2="hardAlpha" operator="arithmetic" k2="-1" k3="1"/><feColorMatrix values="0 0 0 0 0.403922 0 0 0 0 0.772549 0 0 0 0 0.545098 0 0 0 1 0"/><feBlend in2="shape" result="effect1_innerShadow"/></filter></defs></svg>