<svg width="57" height="57" fill="none" xmlns="http://www.w3.org/2000/svg"><path d="M48.91 28.452a6.344 6.344 0 01-1.838 4.48l-14.95 14.95A5.105 5.105 0 0128.5 49.38a5.105 5.105 0 01-3.622-1.498L9.874 32.876A6.145 6.145 0 018.06 28.5c0-1.638.634-3.18 1.784-4.346a6.1 6.1 0 014.358-1.814h.021c1.666 0 3.29.67 4.459 1.838l3.584 3.584V6.234A6.241 6.241 0 0128.5 0a6.241 6.241 0 016.234 6.234v21.528l3.64-3.638a6.144 6.144 0 014.376-1.814c1.638 0 3.18.634 4.346 1.784a6.101 6.101 0 011.814 4.358z" fill="#69EF9C"/><path d="M34.734 6.234v21.528l-2.449 2.45V8.683a6.241 6.241 0 00-6.234-6.235 6.193 6.193 0 00-3.01.776A6.239 6.239 0 0128.5 0a6.241 6.241 0 016.234 6.234zM48.91 28.452a6.344 6.344 0 01-1.838 4.48l-14.95 14.95A5.105 5.105 0 0128.5 49.38c-.59 0-1.181-.102-1.743-.304a5.088 5.088 0 001.877-1.194l14.95-14.95a6.344 6.344 0 001.838-4.48 6.1 6.1 0 00-1.814-4.358 6.148 6.148 0 00-2.604-1.536 6.22 6.22 0 011.746-.248c1.638 0 3.18.634 4.346 1.784a6.101 6.101 0 011.814 4.358z" fill="#4EC17A"/><path d="M55.219 57h-2.672a1.781 1.781 0 010-3.563h2.672a1.781 1.781 0 010 3.563zM4.453 57H1.781a1.781 1.781 0 010-3.563h2.672a1.781 1.781 0 010 3.563zm41.86 0H10.687a1.781 1.781 0 010-3.563h35.626a1.781 1.781 0 010 3.563z" fill="#ACEBE2"/></svg>