<svg width="68" height="68" viewBox="0 0 68 68" fill="none" xmlns="http://www.w3.org/2000/svg">
<g filter="url(#filter0_d)">
<path d="M0 60L4.13789 45C1.44832 40.3448 0 35.1724 0 29.793C0 13.4483 13.4483 0 29.8965 0C46.3447 0 60 13.4483 60 29.793C60 46.1378 46.3448 60 29.8965 60C24.7241 60 19.7586 58.3448 15.3103 55.8621L0 60Z" fill="white"/>
<path d="M16.138 50.4827L17.069 50.9999C20.8966 53.3792 25.3449 54.8275 30.0001 54.8275C43.5517 54.8275 54.8276 43.5516 54.8276 29.793C54.8276 16.0344 43.5517 5.17236 29.8966 5.17236C16.2414 5.17236 5.17249 16.1378 5.17249 29.793C5.17249 34.5516 6.51733 39.2068 9.00006 43.1378L9.62081 44.0689L7.24155 52.7586L16.138 50.4827Z" fill="#55CD6C"/>
<path d="M21.931 15.9311L19.9655 15.8276C19.3448 15.8276 18.7242 16.0346 18.3104 16.4484C17.3793 17.276 15.8276 18.8276 15.4138 20.8967C14.6897 24.0002 15.8276 27.7243 18.5173 31.4484C21.207 35.1725 26.3794 41.1725 35.4828 43.7587C38.3793 44.5863 40.6552 44.069 42.5173 42.9311C43.9656 42.0001 44.8966 40.5518 45.207 39.0001L45.5173 37.5517C45.6208 37.1379 45.4138 36.6207 45.0001 36.4138L38.4828 33.4138C38.069 33.2069 37.5517 33.3104 37.2414 33.7242L34.6552 37.0345C34.4483 37.2414 34.1379 37.3448 33.8276 37.2414C32.069 36.6207 26.1725 34.1379 22.9655 27.9311C22.8621 27.6208 22.8621 27.3104 23.069 27.1035L25.5517 24.3105C25.7587 24.0002 25.8621 23.5864 25.7587 23.276L22.7587 16.5519C22.6551 16.2414 22.3448 15.9311 21.931 15.9311Z" fill="white"/>
</g>
<defs>
<filter id="filter0_d" x="0" y="0" width="68" height="68" filterUnits="userSpaceOnUse" color-interpolation-filters="sRGB">
<feFlood flood-opacity="0" result="BackgroundImageFix"/>
<feColorMatrix in="SourceAlpha" type="matrix" values="0 0 0 0 0 0 0 0 0 0 0 0 0 0 0 0 0 0 127 0"/>
<feOffset dx="4" dy="4"/>
<feGaussianBlur stdDeviation="2"/>
<feColorMatrix type="matrix" values="0 0 0 0 0 0 0 0 0 0 0 0 0 0 0 0 0 0 0.25 0"/>
<feBlend mode="normal" in2="BackgroundImageFix" result="effect1_dropShadow"/>
<feBlend mode="normal" in="SourceGraphic" in2="effect1_dropShadow" result="shape"/>
</filter>
</defs>
</svg>
