<svg width="112" height="112" viewBox="0 0 112 112" fill="none" xmlns="http://www.w3.org/2000/svg">
<g clip-path="url(#clip0)">
<path d="M108.41 47.3397C106.096 45.0253 103.02 43.75 99.75 43.75H96.1844C95.3947 41.1556 94.3556 38.6466 93.0759 36.2491L95.5981 33.7247C100.373 28.9516 100.373 21.1794 95.5981 16.4019C93.2859 14.0875 90.2103 12.8144 86.9356 12.8144C83.6631 12.8144 80.5875 14.0875 78.2753 16.4019L75.7509 18.9241C73.3534 17.6444 70.8444 16.6031 68.25 15.8156V12.25C68.25 6.81625 64.6319 2.04313 59.5 0.509687C59.1522 0.404687 58.8 0.317188 58.4391 0.242812C57.6341 0.0809375 56.8138 0 56 0C52.7297 0 49.6541 1.27531 47.3397 3.58969C45.0253 5.90406 43.75 8.97969 43.75 12.25V15.8156C41.1556 16.6031 38.6466 17.6444 36.2491 18.9241L33.7247 16.4019C28.9516 11.6266 21.1794 11.6266 16.4019 16.4019C14.0875 18.7141 12.8144 21.7919 12.8144 25.0644C12.8144 28.3369 14.0875 31.4125 16.4019 33.7247L18.9241 36.2491C17.6444 38.6466 16.6053 41.1556 15.8156 43.75H12.25C5.495 43.75 0 49.245 0 56C0 59.2703 1.27531 62.3459 3.58969 64.6603C5.90406 66.9747 8.97969 68.25 12.25 68.25H15.8156C16.6053 70.8444 17.6444 73.3534 18.9241 75.7509L16.4019 78.2753C11.6266 83.0484 11.6266 90.8206 16.4019 95.5981C18.7141 97.9125 21.7897 99.1856 25.0644 99.1856C28.3369 99.1856 31.4125 97.9125 33.7247 95.5981L36.2491 93.0759C38.6466 94.3556 41.1556 95.3969 43.75 96.1844V99.75C43.75 106.505 49.245 112 56 112C56.8138 112 57.6341 111.919 58.4391 111.757C58.4412 111.755 58.4434 111.755 58.4456 111.755C58.8022 111.683 59.1544 111.595 59.5 111.488C61.4425 110.915 63.21 109.863 64.6603 108.41C66.9747 106.096 68.25 103.02 68.25 99.75V96.1844C70.8444 95.3969 73.3534 94.3556 75.7509 93.0759L78.2753 95.5981C80.6619 97.9869 83.7988 99.1813 86.9356 99.1813C90.0725 99.1791 93.2094 97.9869 95.5981 95.5981C97.9125 93.2859 99.1856 90.2081 99.1856 86.9356C99.1856 83.6631 97.9125 80.5875 95.5981 78.2753L93.0759 75.7509C94.3556 73.3534 95.3947 70.8444 96.1844 68.25H99.75C106.505 68.25 112 62.755 112 56C112 52.7297 110.725 49.6541 108.41 47.3397ZM59.5 76.7069C58.9247 76.8053 58.3406 76.8775 57.75 76.9256C57.1725 76.9759 56.5884 77 56 77C44.4019 77 35 67.5981 35 56C35 44.4019 44.4019 35 56 35C56.5884 35 57.1725 35.0241 57.75 35.0744C58.3406 35.1225 58.9247 35.1947 59.5 35.2931C69.4334 36.9556 77 45.5941 77 56C77 66.4059 69.4334 75.0444 59.5 76.7069Z" fill="#69EF9C"/>
<path d="M56 80.5C42.4907 80.5 31.5 69.5093 31.5 56C31.5 42.4907 42.4907 31.5 56 31.5C56.6958 31.5 57.3867 31.5295 58.0538 31.5875C64.1456 32.0882 69.8099 34.8502 73.9865 39.3636C78.1867 43.9027 80.5 49.8111 80.5 56C80.5 62.1889 78.1867 68.0973 73.9865 72.6364C69.8099 77.1498 64.1456 79.9118 58.0368 80.414C57.3867 80.4705 56.6958 80.5 56 80.5ZM56 38.5C46.3505 38.5 38.5 46.3505 38.5 56C38.5 65.6495 46.3505 73.5 56 73.5C56.4939 73.5 56.9804 73.4794 57.4462 73.439C66.4558 72.6983 73.5 65.039 73.5 56C73.5 46.961 66.4558 39.3017 57.4632 38.5626C56.9804 38.5206 56.4939 38.5 56 38.5Z" fill="#2E689A"/>
<path d="M108.41 47.3397C106.096 45.0253 103.02 43.75 99.75 43.75H96.1844C95.3947 41.1556 94.3556 38.6466 93.0759 36.2491L95.5981 33.7247C100.373 28.9516 100.373 21.1794 95.5981 16.4019C93.2859 14.0875 90.2103 12.8144 86.9356 12.8144C85.7325 12.8144 84.5578 12.9872 83.4356 13.3197C85.3672 13.8906 87.1347 14.9384 88.5981 16.4019C93.3734 21.1794 93.3734 28.9516 88.5981 33.7247L87.6352 34.6885C86.7215 35.6031 86.485 36.9908 87.0345 38.1612C87.5809 39.3249 88.0729 40.5121 88.5093 41.72C88.9486 42.936 90.0974 43.75 91.3905 43.75H92.75C96.0203 43.75 99.0959 45.0253 101.41 47.3397C103.76 49.6893 105.039 52.8237 104.999 56.1498C104.919 62.8858 99.309 68.25 92.5724 68.25H91.3905C90.0974 68.25 88.9486 69.064 88.5093 70.28C88.0729 71.4879 87.5809 72.6751 87.0345 73.8388C86.485 75.0092 86.7212 76.3969 87.6352 77.3115L88.5981 78.2753C90.9125 80.5875 92.1856 83.6631 92.1856 86.9356C92.1856 90.2081 90.9125 93.2859 88.5981 95.5981C87.1062 97.09 85.3234 98.1137 83.4312 98.6737C84.5731 99.0128 85.7544 99.1813 86.9356 99.1813C90.0725 99.1791 93.2094 97.9869 95.5981 95.5981C97.9125 93.2859 99.1856 90.2081 99.1856 86.9356C99.1856 83.6631 97.9125 80.5875 95.5981 78.2753L93.0759 75.7509C94.3556 73.3534 95.3947 70.8444 96.1844 68.25H99.5724C106.309 68.25 111.919 62.8858 111.999 56.1498C112.039 52.8237 110.76 49.6893 108.41 47.3397ZM68.25 15.8156V12.25C68.25 6.81625 64.6319 2.04313 59.5 0.509687C59.1522 0.404687 58.8 0.317188 58.4391 0.242812C57.6341 0.0809375 56.8137 0 56 0C54.7947 0 53.6156 0.172812 52.4934 0.5075V0.507719C57.6288 2.03897 61.25 6.81384 61.25 12.25V13.6087C61.25 14.9019 62.0642 16.0508 63.2804 16.49C64.4882 16.9262 65.6751 17.4184 66.8386 17.9651C68.0089 18.515 69.3969 18.2788 70.3117 17.3648L70.9406 16.7366C70.0547 16.3975 69.1578 16.0913 68.25 15.8156ZM66.8386 94.0349C65.6751 94.5816 64.4882 95.074 63.2804 95.5102C62.0642 95.9494 61.25 97.0983 61.25 98.3916V99.75C61.25 103.02 59.9747 106.096 57.6603 108.41C56.21 109.863 54.4425 110.915 52.5 111.488C53.6091 111.823 54.7837 112 56 112C56.8137 112 57.6341 111.919 58.4391 111.757C58.4412 111.755 58.4434 111.755 58.4456 111.755C58.8022 111.683 59.1544 111.595 59.5 111.488C61.4425 110.915 63.21 109.863 64.6603 108.41C66.9747 106.096 68.25 103.02 68.25 99.75V96.1844C69.1578 95.9088 70.0547 95.6025 70.9406 95.2634L70.3117 94.6352C69.3969 93.7213 68.0089 93.485 66.8386 94.0349Z" fill="#67C58B"/>
</g>
<defs>
<clipPath id="clip0">
<rect width="112" height="112" fill="white"/>
</clipPath>
</defs>
</svg>
