<svg width="112" height="112" viewBox="0 0 112 112" fill="none" xmlns="http://www.w3.org/2000/svg">
<g filter="url(#filter0_i)">
<path d="M112 46.5555H0V104.306C0 108.534 3.42781 111.962 7.65625 111.962H104.344C108.572 111.962 112 108.534 112 104.306V46.5555Z" fill="#51CA7F"/>
<path d="M56 46.5555V111.962H104.344C108.572 111.962 112 108.534 112 104.306V46.5555H56Z" fill="#69EF9C"/>
<path d="M93.1875 90.1964H77.4955V79.2589H93.1875C94.9996 79.2589 96.4688 77.7898 96.4688 75.9777C96.4688 74.1655 94.9996 72.6964 93.1875 72.6964H18.8125C17.0004 72.6964 15.5312 74.1655 15.5312 75.9777C15.5312 77.7898 17.0004 79.2589 18.8125 79.2589H34.5045V90.1964H18.8125C17.0004 90.1964 15.5312 91.6655 15.5312 93.4777C15.5312 95.2898 17.0004 96.7589 18.8125 96.7589H93.1875C94.9996 96.7589 96.4688 95.2898 96.4688 93.4777C96.4688 91.6655 94.9996 90.1964 93.1875 90.1964ZM41.067 79.2589H70.9328V90.1964H41.067V79.2589Z" fill="white"/>
<path d="M109.812 36.0386H12.7695V56.3994H109.812C111.021 56.3994 112 55.42 112 54.2119V38.2261C112 37.0179 111.021 36.0386 109.812 36.0386Z" fill="#51CA7F"/>
<path d="M109.812 36.0386H56V56.3994H109.812C111.021 56.3994 112 55.42 112 54.2119V38.2261C112 37.0179 111.021 36.0386 109.812 36.0386Z" fill="#69EF9C"/>
<path d="M104.653 0.0716804L14.875 15.9022L21.7339 35.3676L108.189 20.1232C109.379 19.9134 110.173 18.7787 109.964 17.589L107.188 1.84618C106.978 0.656399 105.843 -0.138101 104.653 0.0716804Z" fill="#51CA7F"/>
<path d="M109.963 17.589L107.188 1.84618C106.978 0.656399 105.843 -0.138101 104.653 0.0716804L56 8.65062V29.3256L108.189 20.1232C109.379 19.9134 110.173 18.7787 109.963 17.589Z" fill="#4EC17A"/>
<path d="M74.8875 5.32015L58.7565 28.3578C58.6364 28.5293 58.537 28.7087 58.4539 28.8929L67.5113 27.2958L84.0271 3.70862L74.8875 5.32015Z" fill="#E4DFD9"/>
<path d="M104.653 0.0716804L103.778 0.226118L87.6465 23.2636C87.5264 23.4351 87.4271 23.6144 87.344 23.7986L96.4013 22.2015L107.885 5.8014L107.188 1.84618C106.978 0.656399 105.843 -0.138101 104.653 0.0716804Z" fill="#E4DFD9"/>
<path d="M88.5653 36.0386L108.926 56.3994H109.812C111.021 56.3994 112 55.42 112 54.2119V50.1928L97.846 36.0386H88.5653Z" fill="#E4DFD9"/>
<path d="M59.2294 36.0386L79.59 56.3994H88.8707L68.5099 36.0386H59.2294Z" fill="#E4DFD9"/>
<path d="M45.9972 10.4145L29.8661 33.4522C29.746 33.6237 29.6467 33.803 29.5636 33.9872L38.6209 32.3901L55.1368 8.80298L45.9972 10.4145Z" fill="white"/>
<path d="M30.2501 36.0386C30.4102 36.4279 30.6477 36.7928 30.9638 37.1091L50.2541 56.3994H59.5348L39.1742 36.0386H30.2501Z" fill="white"/>
<path d="M17.4888 13.743H4.375C1.95869 13.743 0 15.7017 0 18.118V52.0243C0 54.4406 1.95869 56.3993 4.375 56.3993H17.3985C18.8324 56.3993 20.1751 55.6967 20.9928 54.5187L33.2078 36.9181C34.2788 35.375 34.2451 33.3203 33.1244 31.8131L20.9998 15.5075C20.174 14.3975 18.8722 13.743 17.4888 13.743Z" fill="#318BC0"/>
<path d="M18.1562 38.3524C19.9684 38.3524 21.4375 36.8834 21.4375 35.0712C21.4375 33.259 19.9684 31.7899 18.1562 31.7899C16.3441 31.7899 14.875 33.259 14.875 35.0712C14.875 36.8834 16.3441 38.3524 18.1562 38.3524Z" fill="white"/>
<path d="M93.1875 90.1964H77.4955V79.2589H93.1875C94.9996 79.2589 96.4688 77.7898 96.4688 75.9777C96.4688 74.1655 94.9996 72.6964 93.1875 72.6964H56V79.2589H70.933V90.1964H56V96.7589H93.1875C94.9996 96.7589 96.4688 95.2898 96.4688 93.4777C96.4688 91.6655 94.9996 90.1964 93.1875 90.1964Z" fill="#E4DFD9"/>
</g>
<defs>
<filter id="filter0_i" x="0" y="0" width="112" height="112" filterUnits="userSpaceOnUse" color-interpolation-filters="sRGB">
<feFlood flood-opacity="0" result="BackgroundImageFix"/>
<feBlend mode="normal" in="SourceGraphic" in2="BackgroundImageFix" result="shape"/>
<feColorMatrix in="SourceAlpha" type="matrix" values="0 0 0 0 0 0 0 0 0 0 0 0 0 0 0 0 0 0 127 0" result="hardAlpha"/>
<feOffset dx="-6" dy="5"/>
<feComposite in2="hardAlpha" operator="arithmetic" k2="-1" k3="1"/>
<feColorMatrix type="matrix" values="0 0 0 0 0.403922 0 0 0 0 0.772549 0 0 0 0 0.545098 0 0 0 1 0"/>
<feBlend mode="normal" in2="shape" result="effect1_innerShadow"/>
</filter>
</defs>
</svg>
