<svg width="112" height="112" viewBox="0 0 112 112" fill="none" xmlns="http://www.w3.org/2000/svg">
<g clip-path="url(#clip0)">
<path d="M86.4225 0H79.662V112H86.4225C90.1566 112 93.1831 108.974 93.1831 105.239V6.76056C93.1831 3.02648 90.1566 0 86.4225 0Z" fill="#4EC17A"/>
<path d="M79.662 0H25.5775C21.8434 0 18.8169 3.02648 18.8169 6.76056V105.239C18.8169 108.974 21.8434 112 25.5775 112H79.662C83.396 112 86.4225 108.974 86.4225 105.239V91.7183L66.1408 49.2394L86.4225 6.76056C86.4225 3.02648 83.396 0 79.662 0Z" fill="#69EF9C"/>
<path d="M62.7606 98.4789H56V105.239H62.7606C64.6274 105.239 66.1408 103.726 66.1408 101.859C66.1408 99.9923 64.6274 98.4789 62.7606 98.4789Z" fill="#2E689A"/>
<path d="M59.3803 101.859C59.3803 99.9923 57.8668 98.4789 56 98.4789H49.2394C47.3726 98.4789 45.8592 99.9923 45.8592 101.859C45.8592 103.726 47.3726 105.239 49.2394 105.239H56C57.8668 105.239 59.3803 103.726 59.3803 101.859Z" fill="#69A7FF"/>
<path d="M56 49.2395L79.662 91.7184H86.4225V66.4789L79.662 52.3944L86.4225 38.3099V6.76062H79.662L56 49.2395Z" fill="#E6F0FF"/>
<path d="M65.5608 6.76062L60.7804 11.541C59.5518 12.7638 57.8628 13.5212 56 13.5212C54.1373 13.5212 52.4482 12.7638 51.2241 11.541C51.2196 11.541 46.4392 6.76062 46.4392 6.76062H25.5775V38.3099L32.338 52.6198L25.5775 66.4789V91.7184H79.662V6.76062H65.5608Z" fill="white"/>
<path d="M79.662 38.3099L69.5211 52.3944L79.662 66.4789H86.4225V38.3099H79.662Z" fill="#306297"/>
<path d="M25.5775 38.3099H79.662V66.4789H25.5775V38.3099Z" fill="#2B78B9"/>
<path d="M55.9999 8.11267C56.7467 8.11267 57.352 7.50731 57.352 6.76056C57.352 6.01381 56.7467 5.40845 55.9999 5.40845C55.2532 5.40845 54.6478 6.01381 54.6478 6.76056C54.6478 7.50731 55.2532 8.11267 55.9999 8.11267Z" fill="#404242"/>
<path d="M73.7217 74.2619L72.9014 75.0846L72.0811 74.2619C70.7222 72.8987 68.519 72.8987 67.1599 74.2619C65.801 75.625 65.801 77.8353 67.1599 79.1984L72.9014 84.9578L78.6427 79.1984C80.0016 77.8353 80.0016 75.625 78.6427 74.2619C77.2838 72.8987 75.0806 72.8987 73.7217 74.2619Z" fill="#FF5A47"/>
<path d="M56 31.5493C59.1114 31.5493 61.6338 29.027 61.6338 25.9155C61.6338 22.8041 59.1114 20.2817 56 20.2817C52.8885 20.2817 50.3662 22.8041 50.3662 25.9155C50.3662 29.027 52.8885 31.5493 56 31.5493Z" fill="#4B88D5"/>
<path d="M37.9718 31.5493C41.0833 31.5493 43.6056 29.027 43.6056 25.9155C43.6056 22.8041 41.0833 20.2817 37.9718 20.2817C34.8603 20.2817 32.338 22.8041 32.338 25.9155C32.338 29.027 34.8603 31.5493 37.9718 31.5493Z" fill="#69A7FF"/>
<path d="M74.0281 31.5493C77.1396 31.5493 79.6619 29.027 79.6619 25.9155C79.6619 22.8041 77.1396 20.2817 74.0281 20.2817C70.9167 20.2817 68.3943 22.8041 68.3943 25.9155C68.3943 29.027 70.9167 31.5493 74.0281 31.5493Z" fill="#2D6AAB"/>
<path d="M59.3803 74.9296H32.338C31.4046 74.9296 30.6479 74.1731 30.6479 73.2395C30.6479 72.3058 31.4046 71.5493 32.338 71.5493H59.3803C60.3139 71.5493 61.0704 72.3058 61.0704 73.2395C61.0704 74.1731 60.3139 74.9296 59.3803 74.9296Z" fill="#ADACA7"/>
<path d="M45.8592 81.6902H32.338C31.4046 81.6902 30.6479 80.9337 30.6479 80.0001C30.6479 79.0664 31.4046 78.3099 32.338 78.3099H45.8592C46.7926 78.3099 47.5493 79.0664 47.5493 80.0001C47.5493 80.9337 46.7926 81.6902 45.8592 81.6902Z" fill="#ADACA7"/>
</g>
<defs>
<clipPath id="clip0">
<rect width="112" height="112" fill="white"/>
</clipPath>
</defs>
</svg>
