<svg width="57" height="57" viewBox="0 0 57 57" fill="none" xmlns="http://www.w3.org/2000/svg">
<path d="M48.9098 28.4521C48.9154 30.1254 48.2452 31.7586 47.0718 32.932L32.1215 47.8822C31.1229 48.8808 29.8114 49.3796 28.5 49.3796C27.1886 49.3796 25.8771 48.8808 24.8785 47.8822L9.8737 32.8763C8.70364 31.7074 8.06016 30.1532 8.06016 28.5C8.06016 26.8624 8.69362 25.3194 9.84364 24.1538C10.9914 22.9904 12.5389 22.3458 14.2021 22.3402H14.2233C15.8888 22.3402 17.513 23.0093 18.682 24.1782L22.2656 27.7619V6.23438C22.2656 2.79656 25.0622 0 28.5 0C31.9378 0 34.7344 2.79656 34.7344 6.23438V27.7619L38.3737 24.1237C39.5426 22.9536 41.0968 22.3102 42.75 22.3102C44.3876 22.3102 45.9307 22.9436 47.0963 24.0936C48.2596 25.2414 48.9042 26.7889 48.9098 28.4521Z" fill="#69EF9C"/>
<path d="M34.7344 6.23438V27.7619L32.2852 30.2111V8.68359C32.2852 5.24578 29.4886 2.44922 26.0508 2.44922C24.9598 2.44922 23.9344 2.73088 23.0416 3.22518C24.1048 1.30365 26.1532 0 28.5 0C31.9378 0 34.7344 2.79656 34.7344 6.23438Z" fill="#4EC17A"/>
<path d="M48.9098 28.4521C48.9153 30.1254 48.2452 31.7586 47.0718 32.932L32.1215 47.8822C31.1229 48.8808 29.8114 49.3796 28.5 49.3796C27.91 49.3796 27.3188 49.2783 26.7566 49.0757C27.4424 48.8285 28.0847 48.4311 28.6336 47.8822L43.5838 32.932C44.7572 31.7586 45.4274 30.1254 45.4219 28.4521C45.4163 26.7889 44.7717 25.2414 43.6083 24.0936C42.868 23.3633 41.9763 22.8412 41.0044 22.5584C41.5644 22.3948 42.1511 22.3102 42.75 22.3102C44.3876 22.3102 45.9306 22.9436 47.0963 24.0936C48.2596 25.2414 48.9042 26.7889 48.9098 28.4521Z" fill="#4EC17A"/>
<path d="M55.2188 57H52.5469C51.5632 57 50.7656 56.2024 50.7656 55.2188C50.7656 54.2351 51.5632 53.4375 52.5469 53.4375H55.2188C56.2024 53.4375 57 54.2351 57 55.2188C57 56.2024 56.2024 57 55.2188 57Z" fill="#ACEBE2"/>
<path d="M4.45312 57H1.78125C0.797555 57 0 56.2024 0 55.2188C0 54.2351 0.797555 53.4375 1.78125 53.4375H4.45312C5.43682 53.4375 6.23438 54.2351 6.23438 55.2188C6.23438 56.2024 5.43682 57 4.45312 57Z" fill="#ACEBE2"/>
<path d="M46.3125 57H10.6875C9.7038 57 8.90625 56.2024 8.90625 55.2188C8.90625 54.2351 9.7038 53.4375 10.6875 53.4375H46.3125C47.2962 53.4375 48.0938 54.2351 48.0938 55.2188C48.0938 56.2024 47.2962 57 46.3125 57Z" fill="#ACEBE2"/>
</svg>
